<svg width="16" height="16" viewBox="0 0 16 16" fill="none" xmlns="http://www.w3.org/2000/svg">
<path d="M1 3.33366C1 2.96547 1.29848 2.66699 1.66667 2.66699H14.3333C14.7015 2.66699 15 2.96547 15 3.33366V12.667C15 13.0352 14.7015 13.3337 14.3333 13.3337H1.66667C1.29848 13.3337 1 13.0352 1 12.667V3.33366Z" stroke="#8C8C8C"/>
<path d="M1 11.333L5.31512 7.63433C5.51349 7.4643 5.80932 7.47566 5.99407 7.66041L7.31311 8.97945C7.50838 9.17472 7.82496 9.17472 8.02022 8.97945L10.3131 6.68656C10.5084 6.4913 10.825 6.4913 11.0202 6.68656L15 10.6663" stroke="#8C8C8C" stroke-linecap="round"/>
<path d="M4.66797 5.33301C4.66797 5.88529 4.22025 6.33301 3.66797 6.33301C3.11568 6.33301 2.66797 5.88529 2.66797 5.33301C2.66797 4.78072 3.11568 4.33301 3.66797 4.33301C4.22025 4.33301 4.66797 4.78072 4.66797 5.33301Z" stroke="#8C8C8C"/>
</svg>
