<svg width="15" height="12" viewBox="0 0 15 12" fill="none" xmlns="http://www.w3.org/2000/svg">
<path fill-rule="evenodd" clip-rule="evenodd" d="M4.58324 2.1615C5.27467 1.31188 6.27022 0.833252 7.44716 0.833252C8.62795 0.833252 9.62466 1.32513 10.3161 2.17759C10.9179 2.91944 11.2703 3.90988 11.3464 5.0412C11.9859 5.11806 12.6054 5.35521 13.0994 5.8114C13.7254 6.38954 14.0855 7.25998 14.0855 8.41231C14.0855 9.57353 13.6748 10.4521 12.957 11.0278C12.257 11.5891 11.328 11.812 10.3717 11.812H10.3699H10.3681H10.3663H10.3645H10.3627H10.361H10.3592H10.3574H10.3556H10.3538H10.352H10.3503H10.3485H10.3467H10.3449H10.3431H10.3413H10.3396H10.3378H10.336H10.3342H10.3324H10.3307H10.3289H10.3271H10.3253H10.3235H10.3217H10.32H10.3182H10.3164H10.3146H10.3128H10.3111H10.3093H10.3075H10.3057H10.3039H10.3022H10.3004H10.2986H10.2968H10.295H10.2933H10.2915H10.2897H10.2879H10.2861H10.2844H10.2826H10.2808H10.279H10.2773H10.2755H10.2737H10.2719H10.2701H10.2684H10.2666H10.2648H10.263H10.2613H10.2595H10.2577H10.2559H10.2542H10.2524H10.2506H10.2488H10.2471H10.2453H10.2435H10.2417H10.24H10.2382H10.2364H10.2346H10.2329H10.2311H10.2293H10.2275H10.2258H10.224H10.2222H10.2204H10.2187H10.2169H10.2151H10.2133H10.2116H10.2098H10.208H10.2063H10.2045H10.2027H10.2009H10.1992H10.1974H10.1956H10.1939H10.1921H10.1903H10.1885H10.1868H10.185H10.1832H10.1815H10.1797H10.1779H10.1761H10.1752V11.8123H4.7192V11.812H4.71837H4.71664H4.71491H4.71318H4.71145H4.70971H4.70798H4.70625H4.70451H4.70278H4.70104H4.69931H4.69757H4.69583H4.6941H4.69236H4.69062H4.68889H4.68715H4.68541H4.68367H4.68193H4.68019H4.67845H4.67671H4.67497H4.67323H4.67149H4.66974H4.668H4.66626H4.66452H4.66277H4.66103H4.65928H4.65754H4.65579H4.65405H4.6523H4.65055H4.64881H4.64706H4.64531H4.64356H4.64181H4.64006H4.63831H4.63656H4.63481H4.63306H4.63131H4.62956H4.62781H4.62605H4.6243H4.62255H4.62079H4.61904H4.61728H4.61553H4.61377H4.61202H4.61026H4.6085H4.60674H4.60499H4.60323H4.60147H4.59971H4.59795H4.59619H4.59443H4.59267H4.5909H4.58914H4.58738H4.58562H4.58385H4.58209H4.58032H4.57856H4.57679H4.57503H4.57326H4.57149H4.56972H4.56796H4.56619H4.56442H4.56265H4.56088H4.55911H4.55734H4.55557H4.55379H4.55202H4.55025H4.54848H4.5467H4.54493H4.54315H4.54138H4.5396H4.53782H4.53605H4.53427H4.53249H4.53071H4.52893H4.52715H4.52537H4.52359H4.52181H4.52003H4.51825H4.51647H4.51468H4.5129C3.55654 11.812 2.62951 11.5891 1.93184 11.0271C1.21654 10.4509 0.809326 9.57229 0.809326 8.41231C0.809326 6.66892 2.02396 5.29384 3.5558 5.0509C3.62907 3.9004 3.97925 2.90369 4.58324 2.1615ZM5.40118 10.8123H9.469C9.4742 10.8121 9.47941 10.812 9.48465 10.812H9.48631H9.48796H9.48962H9.49128H9.49293H9.49459H9.49625H9.49791H9.49956H9.50122H9.50288H9.50454H9.5062H9.50786H9.50952H9.51119H9.51285H9.51451H9.51617H9.51783H9.5195H9.52116H9.52283H9.52449H9.52616H9.52782H9.52949H9.53115H9.53282H9.53448H9.53615H9.53782H9.53949H9.54116H9.54282H9.54449H9.54616H9.54783H9.5495H9.55117H9.55285H9.55452H9.55619H9.55786H9.55953H9.5612H9.56288H9.56455H9.56623H9.5679H9.56958H9.57125H9.57293H9.5746H9.57628H9.57795H9.57963H9.58131H9.58299H9.58466H9.58634H9.58802H9.5897H9.59138H9.59306H9.59474H9.59642H9.5981H9.59978H9.60146H9.60315H9.60483H9.60651H9.60819H9.60988H9.61156H9.61325H9.61493H9.61662H9.6183H9.61999H9.62167H9.62336H9.62505H9.62673H9.62842H9.63011H9.6318H9.63348H9.63517H9.63686H9.63855H9.64024H9.64193H9.64362H9.64531H9.647H9.64869H9.65039H9.65208H9.65377H9.65547H9.65716H9.65885H9.66055H9.66224H9.66393H9.66563H9.66733H9.66902H9.67072H9.67241H9.67411H9.67581H9.6775H9.6792H9.6809H9.6826H9.6843H9.686H9.68769H9.68939H9.69109H9.69279H9.6945H9.6962H9.6979H9.6996H9.7013H9.703H9.70471H9.70641H9.70811H9.70982H9.71152H9.71322H9.71493H9.71663H9.71834H9.72004H9.72175H9.72346H9.72516H9.72687H9.72858H9.73028H9.73199H9.7337H9.73541H9.73712H9.73882H9.74053H9.74224H9.74395H9.74566H9.74737H9.74909H9.7508H9.75251H9.75422H9.75593H9.75764H9.75936H9.76107H9.76278H9.7645H9.76621H9.76792H9.76964H9.77135H9.77307H9.77479H9.7765H9.77822H9.77993H9.78165H9.78337H9.78508H9.7868H9.78852H9.79024H9.79195H9.79367H9.79539H9.79711H9.79883H9.80055H9.80227H9.80399H9.80571H9.80743H9.80916H9.81088H9.8126H9.81432H9.81604H9.81777H9.81949H9.82121H9.82294H9.82466H9.82638H9.82811H9.82983H9.83156H9.83328H9.83501H9.83674H9.83846H9.84019H9.84192H9.84364H9.84537H9.8471H9.84883H9.85055H9.85228H9.85401H9.85574H9.85747H9.8592H9.86093H9.86266H9.86439H9.86612H9.86785H9.86958H9.87131H9.87304H9.87478H9.87651H9.87824H9.87997H9.88171H9.88344H9.88517H9.88691H9.88864H9.89038H9.89211H9.89384H9.89558H9.89732H9.89905H9.90079H9.90252H9.90426H9.906H9.90773H9.90947H9.91121H9.91294H9.91468H9.91642H9.91816H9.9199H9.92164H9.92338H9.92512H9.92686H9.92859H9.93034H9.93208H9.93382H9.93556H9.9373H9.93904H9.94078H9.94252H9.94427H9.94601H9.94775H9.94949H9.95124H9.95298H9.95472H9.95647H9.95821H9.95996H9.9617H9.96344H9.96519H9.96694H9.96868H9.97043H9.97217H9.97392H9.97567H9.97741H9.97916H9.98091H9.98265H9.9844H9.98615H9.9879H9.98965H9.99139H9.99314H9.99489H9.99664H9.99839H10.0001H10.0019H10.0036H10.0054H10.0071H10.0089H10.0106H10.0124H10.0141H10.0159H10.0176H10.0194H10.0212H10.0229H10.0247H10.0264H10.0282H10.0299H10.0317H10.0334H10.0352H10.0369H10.0387H10.0404H10.0422H10.044H10.0457H10.0475H10.0492H10.051H10.0527H10.0545H10.0562H10.058H10.0598H10.0615H10.0633H10.065H10.0668H10.0685H10.0703H10.0721H10.0738H10.0756H10.0773H10.0791H10.0809H10.0826H10.0844H10.0861H10.0879H10.0897H10.0914H10.0932H10.0949H10.0967H10.0985H10.1002H10.102H10.1038H10.1055H10.1073H10.109H10.1108H10.1126H10.1143H10.1161H10.1179H10.1196H10.1214H10.1231H10.1249H10.1267H10.1284H10.1302H10.132H10.1337H10.1355H10.1373H10.139H10.1408H10.1426H10.1443H10.1461H10.1479H10.1496H10.1514H10.1532H10.1549H10.1567H10.1585H10.1602H10.162H10.1638H10.1655H10.1673H10.1691H10.1708H10.1726H10.1744H10.1761H10.1779H10.1797H10.1815H10.1832H10.185H10.1868H10.1885H10.1903H10.1921H10.1939H10.1956H10.1974H10.1992H10.2009H10.2027H10.2045H10.2063H10.208H10.2098H10.2116H10.2133H10.2151H10.2169H10.2187H10.2204H10.2222H10.224H10.2258H10.2275H10.2293H10.2311H10.2329H10.2346H10.2364H10.2382H10.24H10.2417H10.2435H10.2453H10.2471H10.2488H10.2506H10.2524H10.2542H10.2559H10.2577H10.2595H10.2613H10.263H10.2648H10.2666H10.2684H10.2701H10.2719H10.2737H10.2755H10.2773H10.279H10.2808H10.2826H10.2844H10.2861H10.2879H10.2897H10.2915H10.2933H10.295H10.2968H10.2986H10.3004H10.3022H10.3039H10.3057H10.3075H10.3093H10.3111H10.3128H10.3146H10.3164H10.3182H10.32H10.3217H10.3235H10.3253H10.3271H10.3289H10.3307H10.3324H10.3342H10.336H10.3378H10.3396H10.3413H10.3431H10.3449H10.3467H10.3485H10.3503H10.352H10.3538H10.3556H10.3574H10.3592H10.361H10.3627H10.3645H10.3663H10.3681H10.3699H10.3717C11.1903 10.812 11.8681 10.6191 12.3313 10.2477C12.7767 9.89049 13.0855 9.31922 13.0855 8.41231C13.0855 7.47457 12.799 6.8952 12.4209 6.54605C12.0371 6.19163 11.4943 6.01473 10.873 6.01271L10.862 6.01283C10.5859 6.01283 10.362 5.78897 10.362 5.51283C10.362 4.35906 10.0474 3.43376 9.53949 2.80755C9.039 2.19053 8.32828 1.83325 7.44716 1.83325C6.56227 1.83325 5.8549 2.18317 5.35886 2.7927C4.85642 3.4101 4.54326 4.3303 4.54132 5.50184L4.54143 5.5127C4.54143 5.64325 4.4914 5.76212 4.40945 5.85117C4.31807 5.95055 4.18696 6.01283 4.04131 6.01283L4.03079 6.01272C2.8652 6.01875 1.80933 7.01373 1.80933 8.41231C1.80933 9.32047 2.11641 9.8917 2.55915 10.2483C3.01952 10.6192 3.69428 10.812 4.5129 10.812H4.51468H4.51647H4.51825H4.52003H4.52181H4.52359H4.52537H4.52715H4.52893H4.53071H4.53249H4.53427H4.53605H4.53782H4.5396H4.54138H4.54315H4.54493H4.5467H4.54848H4.55025H4.55202H4.55379H4.55557H4.55734H4.55911H4.56088H4.56265H4.56442H4.56619H4.56796H4.56972H4.57149H4.57326H4.57503H4.57679H4.57856H4.58032H4.58209H4.58385H4.58562H4.58738H4.58914H4.5909H4.59267H4.59443H4.59619H4.59795H4.59971H4.60147H4.60323H4.60499H4.60674H4.6085H4.61026H4.61202H4.61377H4.61553H4.61728H4.61904H4.62079H4.62255H4.6243H4.62605H4.62781H4.62956H4.63131H4.63306H4.63481H4.63656H4.63831H4.64006H4.64181H4.64356H4.64531H4.64706H4.64881H4.65055H4.6523H4.65405H4.65579H4.65754H4.65928H4.66103H4.66277H4.66452H4.66626H4.668H4.66974H4.67149H4.67323H4.67497H4.67671H4.67845H4.68019H4.68193H4.68367H4.68541H4.68715H4.68889H4.69062H4.69236H4.6941H4.69583H4.69757H4.69931H4.70104H4.70278H4.70451H4.70625H4.70798H4.70971H4.71145H4.71318H4.71491H4.71664H4.71837H4.72011H4.72184H4.72357H4.7253H4.72703H4.72876H4.73048H4.73221H4.73394H4.73567H4.7374H4.73912H4.74085H4.74258H4.7443H4.74603H4.74775H4.74948H4.7512H4.75293H4.75465H4.75637H4.7581H4.75982H4.76154H4.76326H4.76499H4.76671H4.76843H4.77015H4.77187H4.77359H4.77531H4.77703H4.77875H4.78047H4.78219H4.7839H4.78562H4.78734H4.78906H4.79077H4.79249H4.7942H4.79592H4.79764H4.79935H4.80107H4.80278H4.80449H4.80621H4.80792H4.80964H4.81135H4.81306H4.81477H4.81648H4.8182H4.81991H4.82162H4.82333H4.82504H4.82675H4.82846H4.83017H4.83188H4.83359H4.8353H4.83701H4.83871H4.84042H4.84213H4.84384H4.84554H4.84725H4.84896H4.85066H4.85237H4.85407H4.85578H4.85748H4.85919H4.86089H4.8626H4.8643H4.866H4.86771H4.86941H4.87111H4.87282H4.87452H4.87622H4.87792H4.87962H4.88132H4.88303H4.88473H4.88643H4.88813H4.88983H4.89153H4.89323H4.89493H4.89662H4.89832H4.90002H4.90172H4.90342H4.90512H4.90681H4.90851H4.91021H4.9119H4.9136H4.9153H4.91699H4.91869H4.92038H4.92208H4.92377H4.92547H4.92716H4.92886H4.93055H4.93225H4.93394H4.93563H4.93733H4.93902H4.94071H4.94241H4.9441H4.94579H4.94748H4.94917H4.95087H4.95256H4.95425H4.95594H4.95763H4.95932H4.96101H4.9627H4.96439H4.96608H4.96777H4.96946H4.97115H4.97284H4.97453H4.97621H4.9779H4.97959H4.98128H4.98297H4.98465H4.98634H4.98803H4.98972H4.9914H4.99309H4.99478H4.99646H4.99815H4.99984H5.00152H5.00321H5.00489H5.00658H5.00826H5.00995H5.01163H5.01332H5.015H5.01669H5.01837H5.02005H5.02174H5.02342H5.02511H5.02679H5.02847H5.03016H5.03184H5.03352H5.0352H5.03689H5.03857H5.04025H5.04193H5.04361H5.0453H5.04698H5.04866H5.05034H5.05202H5.0537H5.05538H5.05707H5.05875H5.06043H5.06211H5.06379H5.06547H5.06715H5.06883H5.07051H5.07219H5.07387H5.07555H5.07723H5.0789H5.08058H5.08226H5.08394H5.08562H5.0873H5.08898H5.09066H5.09233H5.09401H5.09569H5.09737H5.09905H5.10072H5.1024H5.10408H5.10576H5.10743H5.10911H5.11079H5.11247H5.11414H5.11582H5.1175H5.11917H5.12085H5.12253H5.1242H5.12588H5.12756H5.12923H5.13091H5.13259H5.13426H5.13594H5.13761H5.13929H5.14097H5.14264H5.14432H5.14599H5.14767H5.14934H5.15102H5.15269H5.15437H5.15604H5.15772H5.15939H5.16107H5.16274H5.16442H5.16609H5.16777H5.16944H5.17112H5.17279H5.17447H5.17614H5.17782H5.17949H5.18117H5.18284H5.18451H5.18619H5.18786H5.18954H5.19121H5.19289H5.19456H5.19623H5.19791H5.19958H5.20126H5.20293H5.20461H5.20628H5.20795H5.20963H5.2113H5.21297H5.21465H5.21632H5.218H5.21967H5.22134H5.22302H5.22469H5.22637H5.22804H5.22971H5.23139H5.23306H5.23473H5.23641H5.23808H5.23976H5.24143H5.2431H5.24478H5.24645H5.24813H5.2498H5.25147H5.25315H5.25482H5.25649H5.25817H5.25984H5.26152H5.26319H5.26486H5.26654H5.26821H5.26989H5.27156H5.27323H5.27491H5.27658H5.27826H5.27993H5.2816H5.28328H5.28495H5.28663H5.2883H5.28998H5.29165H5.29333H5.295H5.29667H5.29835H5.30002H5.3017H5.30337H5.30505H5.30672H5.3084H5.31007H5.31175H5.31342H5.3151H5.31677H5.31845H5.32012H5.3218H5.32348H5.32515H5.32683H5.3285H5.33018H5.33185H5.33353H5.33521H5.33688H5.33856H5.34023H5.34191H5.34359H5.34526H5.34694H5.34862H5.35029H5.35197H5.35365H5.35532H5.357H5.35868H5.36035H5.36203H5.36371H5.36539H5.36706H5.36874H5.37042H5.3721H5.37378H5.37545H5.37713H5.37881H5.38049H5.38217H5.38385H5.38552C5.39076 10.812 5.39598 10.8121 5.40118 10.8123Z" fill="white"/>
</svg>
